<?xml version="1.0" encoding="UTF-8" standalone="no"?>
<svg
   xmlns:dc="http://purl.org/dc/elements/1.1/"
   xmlns:cc="http://creativecommons.org/ns#"
   xmlns:rdf="http://www.w3.org/1999/02/22-rdf-syntax-ns#"
   xmlns:svg="http://www.w3.org/2000/svg"
   xmlns="http://www.w3.org/2000/svg"
   xmlns:sodipodi="http://sodipodi.sourceforge.net/DTD/sodipodi-0.dtd"
   xmlns:inkscape="http://www.inkscape.org/namespaces/inkscape"
   version="1.1"
   x="0px"
   y="0px"
   viewBox="0 0 37 37"
   enable-background="new 0 0 48 48"
   xml:space="preserve"
   id="svg3733"
   sodipodi:docname="statsmodels.svg"
   inkscape:version="0.92.4 (5da689c313, 2019-01-14)"
   width="37"
   height="37"><metadata
     id="metadata3739"><rdf:RDF><cc:Work
         rdf:about=""><dc:format>image/svg+xml</dc:format><dc:type
           rdf:resource="http://purl.org/dc/dcmitype/StillImage" /><dc:title></dc:title></cc:Work></rdf:RDF></metadata><defs
     id="defs3737" /><sodipodi:namedview
     pagecolor="#ffffff"
     bordercolor="#666666"
     borderopacity="1"
     objecttolerance="10"
     gridtolerance="10"
     guidetolerance="10"
     inkscape:pageopacity="0"
     inkscape:pageshadow="2"
     inkscape:window-width="2560"
     inkscape:window-height="1377"
     id="namedview3735"
     showgrid="false"
     inkscape:zoom="10.066667"
     inkscape:cx="-14.782236"
     inkscape:cy="17.624612"
     inkscape:window-x="-8"
     inkscape:window-y="-8"
     inkscape:window-maximized="1"
     inkscape:current-layer="svg3733" /><path
     d="m 33.604086,15.250781 c -1.746,0 -3.167,-1.421 -3.167,-3.167 0,-1.745999 1.421,-3.1669993 3.167,-3.1669993 1.746,0 3.167,1.4210003 3.167,3.1669993 0,1.746 -1.421,3.167 -3.167,3.167 z m 0,-4.334 c -0.644,0 -1.167,0.523 -1.167,1.167 0,0.644 0.523,1.167 1.167,1.167 0.644,0 1.167,-0.523 1.167,-1.167 0,-0.644 -0.523,-1.167 -1.167,-1.167 z m -13,23.833 c -1.746,0 -3.167,-1.421 -3.167,-3.167 0,-1.746 1.421,-3.167 3.167,-3.167 1.746,0 3.167,1.421 3.167,3.167 0,1.746 -1.421,3.167 -3.167,3.167 z m 0,-4.334 c -0.644,0 -1.167,0.523 -1.167,1.167 0,0.644 0.523,1.167 1.167,1.167 0.644,0 1.167,-0.523 1.167,-1.167 0,-0.644 -0.523,-1.167 -1.167,-1.167 z m -8.668,-13 c -1.746,0 -3.167,-1.421 -3.167,-3.167 0,-1.746 1.421,-3.167 3.167,-3.167 1.746,0 3.167,1.421 3.167,3.167 0,1.746 -1.421,3.167 -3.167,3.167 z m 0,-4.334 c -0.644,0 -1.167,0.523 -1.167,1.167 0,0.644 0.523,1.167 1.167,1.167 0.644,0 1.167,-0.523 1.167,-1.167 0,-0.644 -0.523,-1.167 -1.167,-1.167 z m 13,-6.4989993 c -1.746,0 -3.167,-1.421 -3.167,-3.167 0,-1.746 1.421,-3.167 3.167,-3.167 1.746,0 3.167,1.421 3.167,3.167 0,1.746 -1.421,3.167 -3.167,3.167 z m 0,-4.334 c -0.644,0 -1.167,0.523 -1.167,1.167 0,0.644 0.523,1.167 1.167,1.167 0.644,0 1.167,-0.523 1.167,-1.167 0,-0.644 -0.523,-1.167 -1.167,-1.167 z m 2.167,19.5009993 c -1.746,0 -3.167,-1.421 -3.167,-3.167 0,-1.746 1.421,-3.167 3.167,-3.167 1.746,0 3.167,1.421 3.167,3.167 0,1.746 -1.421,3.167 -3.167,3.167 z m 0,-4.334 c -0.644,0 -1.167,0.523 -1.167,1.167 0,0.644 0.523,1.167 1.167,1.167 0.644,0 1.167,-0.523 1.167,-1.167 0,-0.644 -0.523,-1.167 -1.167,-1.167 z m -21.666,8.668 c -1.746,0 -3.167,-1.421 -3.167,-3.167 0,-1.746 1.421,-3.167 3.167,-3.167 1.746,0 3.167,1.421 3.167,3.167 0,1.746 -1.421,3.167 -3.167,3.167 z m 0,-4.334 c -0.644,0 -1.167,0.523 -1.167,1.167 0,0.644 0.523,1.167 1.167,1.167 0.644,0 1.167,-0.523 1.167,-1.167 0,-0.644 -0.523,-1.167 -1.167,-1.167 z m 6.499,15.167 c -1.746,0 -3.167,-1.421 -3.167,-3.167 0,-1.746 1.421,-3.167 3.167,-3.167 1.746,0 3.167,1.421 3.167,3.167 0,1.746 -1.421,3.167 -3.167,3.167 z m 0,-4.334 c -0.644,0 -1.167,0.523 -1.167,1.167 0,0.644 0.523,1.167 1.167,1.167 0.644,0 1.167,-0.523 1.167,-1.167 0,-0.644 -0.523,-1.167 -1.167,-1.167 z m -10.126,4.041 34.668,-34.6679993 c 0.391,-0.391 0.391,-1.023 0,-1.414 -0.391,-0.391 -1.023,-0.391 -1.414,0 l -34.668,34.6679993 c -0.391,0.391 -0.391,1.023 0,1.414 0.195,0.195 0.451,0.293 0.707,0.293 0.256,0 0.512,-0.098 0.707,-0.293 z"
     id="path3727"
     inkscape:connector-curvature="0"
     style="fill:#ffffff;fill-opacity:1" /></svg>