<?xml version="1.0" encoding="UTF-8" standalone="no"?>
<svg
   xmlns:dc="http://purl.org/dc/elements/1.1/"
   xmlns:cc="http://creativecommons.org/ns#"
   xmlns:rdf="http://www.w3.org/1999/02/22-rdf-syntax-ns#"
   xmlns:svg="http://www.w3.org/2000/svg"
   xmlns="http://www.w3.org/2000/svg"
   id="svg3100"
   version="1.1"
   viewBox="0 0 270.93333 270.93334"
   height="1024"
   width="1024">
  <defs
     id="defs3094">
    <clipPath
       clipPathUnits="userSpaceOnUse"
       id="clipPath1464">
      <rect
         style="fill:#444444;fill-opacity:0.13333333;stroke:none;stroke-width:7;stroke-miterlimit:4;stroke-dasharray:none;stroke-opacity:0.22613065"
         id="rect1466"
         width="271.1456"
         height="270.94055"
         x="0.0029871927"
         y="26.203016"
         ry="0.14095114"
         rx="0" />
    </clipPath>
  </defs>
  <metadata
     id="metadata3097">
    <rdf:RDF>
      <cc:Work
         rdf:about="">
        <dc:format>image/svg+xml</dc:format>
        <dc:type
           rdf:resource="http://purl.org/dc/dcmitype/StillImage" />
        <dc:title></dc:title>
      </cc:Work>
    </rdf:RDF>
  </metadata>
  <g
     transform="translate(-0.00298719,-26.210251)"
     id="layer1"
     clip-path="url(#clipPath1464)"
     style="stroke:#ffffff;stroke-opacity:1">
    <path
       id="path3655"
       d="m 11.389637,436.95325 c 0,0 -9.933742,-239.7295 48.46627,-273.92653 64.280963,-37.64071 115.006233,22.97054 154.506923,-10.25393 51.76708,-43.54185 44.27756,-197.596591 44.27756,-197.596591"
       style="fill:none;fill-opacity:1;stroke:#ffffff;stroke-width:30;stroke-linecap:butt;stroke-linejoin:miter;stroke-miterlimit:4;stroke-dasharray:none;stroke-opacity:1" />
    <path
       style="fill:#ffffff;fill-opacity:1;stroke:none;stroke-width:7;stroke-miterlimit:4;stroke-dasharray:none;stroke-opacity:1"
       id="path3727-4-9"
       d="m 32.190044,127.2274 c -13.78268,0 -25.0001807,-11.21716 -25.0001807,-24.99983 0,-13.783036 11.2175007,-25.000186 25.0001807,-25.000186 13.78267,0 24.99982,11.21715 24.99982,25.000186 0,13.78267 -11.21715,24.99983 -24.99982,24.99983 z m 0,-34.212086 c -5.08361,0 26.99793,-15.091188 8.008089,19.544456 -2.443986,4.4576 -13.091699,-1.12003 -8.008089,-1.12003 5.08362,0 9.21217,-4.12855 9.21217,-9.21217 0,-5.083616 -4.12855,-9.212256 -9.21217,-9.212256 z" />
  </g>
  <path
     style="fill:#ffffff;fill-opacity:1;stroke:none;stroke-width:7;stroke-miterlimit:4;stroke-dasharray:none;stroke-opacity:1"
     id="path3727-4-9-0"
     d="m 99.408513,59.20625 c -13.782679,0 -25.00018,-11.217163 -25.00018,-24.999833 0,-13.783036 11.217501,-25.0001859 25.00018,-25.0001859 13.782667,0 24.999817,11.2171499 24.999817,25.0001859 0,13.78267 -11.21715,24.999833 -24.999817,24.999833 z m 0,-34.212089 c -5.083609,0 15.230697,-5.332996 9.443117,15.52638 -1.35914,4.898566 -14.526726,2.898046 -9.443117,2.898046 5.083617,0 9.212167,-4.12855 9.212167,-9.21217 0,-5.083616 -4.12855,-9.212256 -9.212167,-9.212256 z" />
  <path
     style="fill:#ffffff;fill-opacity:1;stroke:none;stroke-width:7;stroke-miterlimit:4;stroke-dasharray:none;stroke-opacity:1"
     id="path3727-4-9-0-7"
     d="m 187.51476,63.439583 c -13.78268,0 -25.00018,-11.217159 -25.00018,-24.999829 0,-13.783036 11.2175,-25.000186 25.00018,-25.000186 13.78267,0 24.99982,11.21715 24.99982,25.000186 0,13.78267 -11.21715,24.999829 -24.99982,24.999829 z m 0,-34.212085 c -5.08361,0 16.95273,-4.758985 12.60018,16.961409 -0.0536,5.083339 -17.68379,1.463017 -12.60018,1.463017 5.08362,0 9.21217,-4.12855 9.21217,-9.21217 0,-5.083616 -4.12855,-9.212256 -9.21217,-9.212256 z" />
  <path
     style="fill:#ffffff;fill-opacity:1;stroke:none;stroke-width:7;stroke-miterlimit:4;stroke-dasharray:none;stroke-opacity:1"
     id="path3727-4-9-0-7-0"
     d="m 77.183513,265.58126 c -13.78268,0 -25.00018,-11.21716 -25.00018,-24.99983 0,-13.78304 11.2175,-25.00019 25.00018,-25.00019 13.78267,0 24.999817,11.21715 24.999817,25.00019 0,13.78267 -11.217147,24.99983 -24.999817,24.99983 z m 0,-34.21209 c -5.08361,0 10.064599,-7.91605 12.60018,16.67441 -0.0536,5.08334 -17.68379,1.75002 -12.60018,1.75002 5.08362,0 9.21217,-4.12855 9.21217,-9.21217 0,-5.08362 -4.12855,-9.21226 -9.21217,-9.21226 z" />
  <path
     style="fill:#ffffff;fill-opacity:1;stroke:none;stroke-width:7;stroke-miterlimit:4;stroke-dasharray:none;stroke-opacity:1"
     id="path3727-4-9-0-7-9"
     d="m 129.30643,208.16667 c -13.78268,0 -25.00018,-11.21715 -25.00018,-24.99982 0,-13.78304 11.2175,-25.00019 25.00018,-25.00019 13.78267,0 24.99982,11.21715 24.99982,25.00019 0,13.78267 -11.21715,24.99982 -24.99982,24.99982 z m 0,-34.21208 c -5.08361,0 10.0646,-4.47198 14.32221,16.1004 -0.0536,5.08333 -19.40582,2.32403 -14.32221,2.32403 5.08362,0 9.21217,-4.12855 9.21217,-9.21217 0,-5.08362 -4.12855,-9.21226 -9.21217,-9.21226 z" />
  <path
     style="fill:#ffffff;fill-opacity:1;stroke:none;stroke-width:7;stroke-miterlimit:4;stroke-dasharray:none;stroke-opacity:1"
     id="path3727-4-9-0-7-3"
     d="m 236.72726,220.07292 c -13.78268,0 -25.00018,-11.21715 -25.00018,-24.99982 0,-13.78304 11.2175,-25.00019 25.00018,-25.00019 13.78267,0 24.99982,11.21715 24.99982,25.00019 0,13.78267 -11.21715,24.99982 -24.99982,24.99982 z m 0,-34.21208 c -5.08361,0 14.65669,-4.75899 9.44312,16.67441 -0.0536,5.08333 -14.52673,1.75002 -9.44312,1.75002 5.08362,0 9.21217,-4.12855 9.21217,-9.21217 0,-5.08362 -4.12855,-9.21226 -9.21217,-9.21226 z" />
</svg>
