<?xml version="1.0" standalone="no"?>
<!DOCTYPE svg PUBLIC "-//W3C//DTD SVG 20010904//EN"
 "http://www.w3.org/TR/2001/REC-SVG-20010904/DTD/svg10.dtd">
<svg version="1.0" xmlns="http://www.w3.org/2000/svg"
 width="1024.000000pt" height="1024.000000pt" viewBox="0 0 1024.000000 1024.000000"
 preserveAspectRatio="xMidYMid meet">
<metadata>
Created by potrace 1.11, written by Peter Selinger 2001-2013
</metadata>
<g transform="translate(0.000000,1024.000000) scale(0.100000,-0.100000)"
fill="#000000" stroke="none">
<path d="M9220 10223 c0 -39 -53 -454 -90 -715 -203 -1403 -554 -2518 -1001
-3173 -260 -382 -516 -593 -816 -672 -82 -21 -127 -26 -279 -30 -286 -8 -508
27 -1104 173 -1004 247 -1361 304 -1900 304 -366 0 -639 -32 -959 -111 -472
-116 -972 -341 -1295 -582 -106 -80 -323 -297 -415 -417 -611 -792 -1037
-2092 -1336 -4073 -23 -157 -25 -192 -25 -547 l0 -380 525 0 525 0 0 28 c0 16
16 150 35 298 264 2018 691 3433 1217 4034 127 145 223 213 473 334 427 208
833 295 1325 283 415 -10 650 -50 1460 -247 946 -230 1295 -272 1770 -214 400
50 787 218 1118 486 170 137 408 399 568 623 300 423 571 998 781 1660 155
491 298 1104 403 1731 l40 241 0 491 0 492 -510 0 c-479 0 -510 -1 -510 -17z"/>
<path d="M3545 10020 c-231 -50 -425 -158 -580 -321 -443 -470 -380 -1229 134
-1620 93 -71 267 -154 386 -185 134 -35 320 -43 454 -20 431 75 763 383 878
814 23 86 26 116 26 262 0 146 -3 176 -26 262 -106 397 -400 694 -786 795
-135 35 -357 41 -486 13z"/>
<path d="M6905 9865 c-550 -103 -928 -577 -902 -1129 23 -507 391 -927 894
-1022 122 -23 344 -15 463 16 329 87 613 332 736 635 67 162 77 221 78 420 1
167 -1 187 -27 280 -94 343 -348 625 -669 745 -170 63 -406 86 -573 55z"/>
<path d="M1000 8444 c-301 -31 -528 -138 -718 -338 -122 -129 -217 -295 -262
-459 -20 -72 -21 -97 -18 -320 4 -233 5 -245 31 -316 65 -180 155 -320 288
-447 383 -366 976 -403 1398 -86 270 202 425 492 438 824 7 156 -7 259 -53
398 -141 425 -529 719 -979 743 -49 2 -106 3 -125 1z"/>
<path d="M4788 4399 c-237 -20 -464 -122 -638 -286 -144 -135 -236 -277 -294
-453 -46 -139 -60 -243 -53 -398 16 -395 239 -742 592 -920 318 -162 678 -160
995 4 642 331 788 1190 292 1715 -176 187 -434 317 -667 334 -38 3 -86 7 -105
9 -19 2 -74 -1 -122 -5z"/>
<path d="M8782 3949 c-85 -13 -242 -64 -322 -104 -276 -140 -486 -400 -567
-703 -24 -87 -27 -115 -27 -272 0 -158 3 -184 27 -273 97 -360 350 -633 705
-761 206 -74 486 -75 697 -3 351 120 615 404 712 764 24 88 27 115 27 273 0
157 -3 185 -27 272 -104 389 -406 687 -797 787 -98 26 -324 36 -428 20z"/>
<path d="M2737 2225 c-347 -66 -642 -289 -792 -599 -300 -619 34 -1347 702
-1534 90 -25 113 -27 278 -27 165 0 188 2 278 27 724 202 1040 1028 634 1656
-56 86 -168 206 -256 273 -93 71 -267 154 -386 185 -127 33 -337 42 -458 19z"/>
</g>
</svg>
