<?xml version="1.0" standalone="no"?>
<!DOCTYPE svg PUBLIC "-//W3C//DTD SVG 20010904//EN"
 "http://www.w3.org/TR/2001/REC-SVG-20010904/DTD/svg10.dtd">
<svg version="1.0" xmlns="http://www.w3.org/2000/svg"
 width="700.000000pt" height="700.000000pt" viewBox="0 0 700.000000 700.000000"
 preserveAspectRatio="xMidYMid meet">
<metadata>
Created by potrace 1.11, written by Peter Selinger 2001-2013
</metadata>
<g transform="translate(0.000000,700.000000) scale(0.100000,-0.100000)"
fill="#000000" stroke="none">
<path d="M6249 6978 c-1 -13 -3 -36 -4 -53 -2 -16 -6 -59 -9 -95 -3 -36 -9
-85 -12 -110 -9 -76 -12 -97 -19 -163 -3 -34 -18 -141 -32 -237 -31 -218 -30
-209 -36 -245 -4 -16 -9 -46 -12 -65 -68 -420 -220 -970 -351 -1265 -10 -22
-18 -42 -19 -45 -1 -3 -22 -48 -48 -100 -217 -436 -476 -693 -741 -736 -21 -3
-48 -8 -60 -10 -56 -11 -284 -4 -371 12 -11 2 -45 8 -75 14 -71 13 -99 18
-130 25 -14 3 -34 7 -45 9 -17 4 -48 11 -135 31 -8 2 -71 18 -140 35 -69 18
-132 33 -140 35 -8 2 -53 12 -100 24 -47 11 -96 22 -110 25 -14 3 -56 12 -95
21 -38 8 -88 18 -110 21 -22 3 -56 9 -75 14 -19 5 -55 11 -80 14 -25 3 -54 8
-65 10 -11 2 -49 7 -85 11 -36 3 -78 9 -95 11 -54 10 -509 12 -575 3 -79 -11
-134 -19 -180 -25 -173 -26 -455 -108 -620 -181 -173 -77 -345 -171 -450 -247
-77 -55 -254 -235 -327 -332 -200 -268 -383 -651 -521 -1089 -89 -281 -180
-635 -226 -875 -3 -14 -20 -104 -39 -200 -19 -96 -37 -194 -41 -217 -3 -22 -7
-52 -10 -65 -3 -12 -7 -36 -10 -53 -12 -82 -38 -243 -43 -265 -3 -14 -8 -159
-10 -322 l-5 -298 356 0 c195 0 357 3 359 7 3 5 8 42 12 83 4 41 8 77 10 80 2
3 6 30 9 60 4 30 8 66 10 80 6 32 17 116 21 157 2 17 8 57 14 90 10 56 15 91
26 171 3 20 10 57 15 82 5 25 11 61 14 80 4 31 12 74 30 170 3 14 8 39 11 55
19 101 46 229 60 290 3 11 7 29 9 40 34 159 119 472 176 644 152 463 313 767
505 954 133 129 524 298 770 331 27 4 51 9 55 11 26 16 371 23 500 10 41 -4
86 -9 100 -10 14 -1 44 -6 68 -10 23 -4 52 -8 65 -10 86 -11 315 -61 642 -140
127 -31 257 -62 290 -70 77 -18 329 -61 420 -72 88 -10 381 -9 455 1 390 52
721 237 1000 556 327 373 582 922 761 1630 17 69 33 136 35 150 3 14 9 41 14
60 9 35 53 252 65 320 3 19 15 85 25 145 11 61 22 133 25 160 4 28 8 57 10 65
2 8 7 35 10 60 3 25 8 63 11 85 11 79 13 91 19 150 3 33 10 87 14 120 5 33 10
140 10 238 l2 177 -376 0 -375 0 -1 -22z"/>
<path d="M2538 6855 c-2 -2 -30 -5 -63 -8 -235 -23 -465 -191 -573 -417 -44
-93 -64 -181 -67 -292 -10 -339 219 -644 550 -733 71 -19 232 -27 301 -14 295
54 516 256 595 544 108 396 -158 822 -566 904 -53 11 -171 21 -177 16z"/>
<path d="M4740 6734 c-168 -25 -303 -94 -418 -214 -284 -294 -280 -743 8
-1030 152 -151 335 -223 545 -216 493 18 826 504 669 974 -87 257 -345 466
-604 488 -36 3 -76 7 -90 8 -14 1 -63 -3 -110 -10z"/>
<path d="M698 5765 c-1 -2 -21 -6 -43 -9 -179 -28 -370 -156 -481 -323 -136
-206 -156 -492 -48 -713 185 -381 635 -533 1001 -340 297 157 453 484 383 804
-60 274 -264 488 -535 562 -52 13 -267 29 -277 19z"/>
<path d="M3239 2996 c-2 -2 -20 -7 -41 -10 -127 -20 -269 -96 -374 -201 -146
-146 -216 -317 -215 -525 0 -284 157 -530 416 -655 119 -57 203 -75 335 -71
126 4 152 9 251 47 230 89 403 298 457 554 10 49 6 246 -7 295 -37 142 -100
251 -205 355 -94 93 -158 133 -282 177 -77 27 -106 31 -210 35 -66 2 -122 1
-125 -1z"/>
<path d="M5967 2679 c-143 -29 -262 -93 -368 -198 -52 -53 -119 -141 -119
-157 0 -4 -6 -15 -14 -23 -8 -9 -29 -59 -46 -111 -30 -87 -33 -105 -33 -220 0
-89 5 -144 17 -190 89 -328 381 -554 711 -553 55 1 131 8 169 17 71 17 219 81
246 107 8 8 36 30 61 49 57 43 139 145 183 230 103 196 104 455 3 657 -154
304 -476 460 -810 392z"/>
<path d="M1825 1500 c-138 -35 -265 -109 -357 -208 -326 -348 -251 -892 157
-1137 85 -51 93 -55 188 -80 79 -22 108 -24 212 -21 129 4 196 21 308 77 277
140 438 445 395 748 -17 124 -52 215 -119 316 -100 149 -250 256 -427 303 -95
26 -261 26 -357 2z"/>
</g>
</svg>
